<?xml version="1.0" encoding="UTF-8" standalone="no"?>
<svg
   viewBox="0 0 112.45 114.02"
   version="1.1"
   id="svg20"
   sodipodi:docname="radar.svg"
   inkscape:version="1.3.2 (091e20e, 2023-11-25, custom)"
   width="112.45"
   height="114.02"
   xmlns:inkscape="http://www.inkscape.org/namespaces/inkscape"
   xmlns:sodipodi="http://sodipodi.sourceforge.net/DTD/sodipodi-0.dtd"
   xmlns="http://www.w3.org/2000/svg"
   xmlns:svg="http://www.w3.org/2000/svg">
  <sodipodi:namedview
     id="namedview20"
     pagecolor="#ffffff"
     bordercolor="#000000"
     borderopacity="0.25"
     inkscape:showpageshadow="2"
     inkscape:pageopacity="0.0"
     inkscape:pagecheckerboard="true"
     inkscape:deskcolor="#d1d1d1"
     showgrid="false"
     inkscape:zoom="9.1640625"
     inkscape:cx="57.179881"
     inkscape:cy="47.849957"
     inkscape:window-width="2560"
     inkscape:window-height="1369"
     inkscape:window-x="-8"
     inkscape:window-y="201"
     inkscape:window-maximized="1"
     inkscape:current-layer="svg20" />
  <defs
     id="defs3">
    <filter
       id="c"
       x="-0.048253122"
       y="-0.047582919"
       width="1.0965062"
       height="1.0951658">
      <feGaussianBlur
         stdDeviation="2.360985"
         id="feGaussianBlur1" />
    </filter>
    <radialGradient
       id="d"
       cx="66.922997"
       cy="73.452003"
       r="46.466999"
       gradientTransform="matrix(1,0,0,1.0326,-6.78,-9.7661964)"
       gradientUnits="userSpaceOnUse">
      <stop
         stop-color="#00b500"
         offset="0"
         id="stop1"
         style="stop-color:#00b500;stop-opacity:0.51769334;" />
      <stop
         stop-color="#005800"
         stop-opacity=".498"
         offset=".7069"
         id="stop2" />
      <stop
         stop-color="#005900"
         stop-opacity="0"
         offset="1"
         id="stop3" />
    </radialGradient>
  </defs>
  <path
     d="m 114.94,57.010004 c 0,32.884 -26.288,59.541996 -58.715,59.541996 -32.427,0 -58.715,-26.657996 -58.715,-59.541996 0,-32.884 26.288,-59.5420004 58.715,-59.5420004 32.427,0 58.715,26.6580004 58.715,59.5420004 z"
     filter="url(#c)"
     id="path3" />
  <path
     d="m 111.95,57.010004 c 0,31.208 -24.948,56.507996 -55.723,56.507996 -30.775,0 -55.723,-25.298996 -55.723,-56.507996 0,-31.208 24.948,-56.50800036 55.723,-56.50800036 30.775,0 55.723,25.29900036 55.723,56.50800036 z"
     fill="url(#d)"
     id="path4"
     style="display:inline;fill:url(#d)" />
  <g
     fill="none"
     stroke="#00ed00"
     id="g7"
     style="display:inline"
     transform="translate(-6.78,-7.3709964)">
    <path
       d="m 104.45,64.381 c 0,23.21 -18.554,42.025 -41.442,42.025 -22.888,0 -41.442,-18.815 -41.442,-42.025 0,-23.21 18.554,-42.025 41.442,-42.025 22.888,0 41.442,18.815 41.442,42.025 z"
       opacity="0.758"
       id="path5" />
    <path
       d="m 90.977,64.381 c 0,15.664 -12.522,28.362 -27.968,28.362 -15.446,0 -27.968,-12.698 -27.968,-28.362 0,-15.664 12.522,-28.362 27.968,-28.362 15.447,0 27.968,12.698 27.968,28.362 z"
       opacity="0.758"
       id="path6" />
    <path
       d="m 77.316,64.381 c 0,8.0133 -6.4058,14.509 -14.308,14.509 -7.902,0 -14.308,-6.496 -14.308,-14.509 0,-8.0132 6.4058,-14.509 14.308,-14.509 7.902,0 14.308,6.496 14.308,14.509 z"
       opacity="0.758"
       id="path7" />
  </g>
  <g
     transform="matrix(1.2425,0,0,1.2425,-22.06,-1173.971)"
     stroke="#00bf00"
     stroke-width="0.2"
     id="g20">
    <g
       fill="#00ff00"
       id="g10"
       style="display:inline">
      <path
         d="m 31.567,958.92 63.387,63.892"
         id="path8" />
      <path
         d="m 40.154,951.85 45.204,77.782"
         id="path9" />
      <path
         d="m 51.013,946.8 23.739,87.378"
         id="path10" />
    </g>
    <path
       d="m 62.882,945.54 v 90.661"
       fill="none"
       id="path11"
       style="display:inline" />
    <g
       fill="#00ff00"
       id="g19"
       style="display:inline">
      <path
         d="M 74.625,947.18 51.77,1034.432"
         id="path12" />
      <path
         d="m 85.737,951.85 -45.331,78.034"
         id="path13" />
      <path
         d="m 101.9,968.27 c -1.0102,0 -77.656,45.204 -77.656,45.204"
         id="path14" />
      <path
         d="M 101.77,1013.2 24.241,968.501"
         id="path15" />
      <path
         d="M 106.57,1002.6 19.949,979.619"
         id="path16" />
      <path
         d="m 106.32,979.38 -86.873,22.981"
         id="path17" />
      <path
         d="m 18.183,990.49 89.146,0.2525"
         id="path18" />
      <path
         d="M 31.315,1022.3 95.46,958.913"
         id="path19" />
    </g>
  </g>
  <path
     d="m 111.95,57.010004 a 55.725,56.510028 0 1 1 -111.45,0 55.725,56.510028 0 1 1 111.45,0 z"
     fill="none"
     stroke="#00ed00"
     id="path20" />
</svg>
